<?xml version="1.0" encoding="utf-8"?>
<svg xmlns="http://www.w3.org/2000/svg" xmlns:xlink="http://www.w3.org/1999/xlink" style="margin: auto; background: none; display: block; shape-rendering: auto;" width="236px" height="236px" viewBox="0 0 100 100" preserveAspectRatio="xMidYMid">
<g transform="rotate(0 50 50)">
  <rect x="48.5" y="20" rx="1.5" ry="8" width="3" height="16" fill="#00b4d8">
    <animate attributeName="opacity" values="1;0" keyTimes="0;1" dur="0.48780487804878053s" begin="-0.4552845528455285s" repeatCount="indefinite"></animate>
  </rect>
</g><g transform="rotate(24 50 50)">
  <rect x="48.5" y="20" rx="1.5" ry="8" width="3" height="16" fill="#00b4d8">
    <animate attributeName="opacity" values="1;0" keyTimes="0;1" dur="0.48780487804878053s" begin="-0.42276422764227645s" repeatCount="indefinite"></animate>
  </rect>
</g><g transform="rotate(48 50 50)">
  <rect x="48.5" y="20" rx="1.5" ry="8" width="3" height="16" fill="#00b4d8">
    <animate attributeName="opacity" values="1;0" keyTimes="0;1" dur="0.48780487804878053s" begin="-0.39024390243902446s" repeatCount="indefinite"></animate>
  </rect>
</g><g transform="rotate(72 50 50)">
  <rect x="48.5" y="20" rx="1.5" ry="8" width="3" height="16" fill="#00b4d8">
    <animate attributeName="opacity" values="1;0" keyTimes="0;1" dur="0.48780487804878053s" begin="-0.3577235772357724s" repeatCount="indefinite"></animate>
  </rect>
</g><g transform="rotate(96 50 50)">
  <rect x="48.5" y="20" rx="1.5" ry="8" width="3" height="16" fill="#00b4d8">
    <animate attributeName="opacity" values="1;0" keyTimes="0;1" dur="0.48780487804878053s" begin="-0.3252032520325204s" repeatCount="indefinite"></animate>
  </rect>
</g><g transform="rotate(120 50 50)">
  <rect x="48.5" y="20" rx="1.5" ry="8" width="3" height="16" fill="#00b4d8">
    <animate attributeName="opacity" values="1;0" keyTimes="0;1" dur="0.48780487804878053s" begin="-0.29268292682926833s" repeatCount="indefinite"></animate>
  </rect>
</g><g transform="rotate(144 50 50)">
  <rect x="48.5" y="20" rx="1.5" ry="8" width="3" height="16" fill="#00b4d8">
    <animate attributeName="opacity" values="1;0" keyTimes="0;1" dur="0.48780487804878053s" begin="-0.2601626016260163s" repeatCount="indefinite"></animate>
  </rect>
</g><g transform="rotate(168 50 50)">
  <rect x="48.5" y="20" rx="1.5" ry="8" width="3" height="16" fill="#00b4d8">
    <animate attributeName="opacity" values="1;0" keyTimes="0;1" dur="0.48780487804878053s" begin="-0.22764227642276424s" repeatCount="indefinite"></animate>
  </rect>
</g><g transform="rotate(192 50 50)">
  <rect x="48.5" y="20" rx="1.5" ry="8" width="3" height="16" fill="#00b4d8">
    <animate attributeName="opacity" values="1;0" keyTimes="0;1" dur="0.48780487804878053s" begin="-0.19512195121951223s" repeatCount="indefinite"></animate>
  </rect>
</g><g transform="rotate(216 50 50)">
  <rect x="48.5" y="20" rx="1.5" ry="8" width="3" height="16" fill="#00b4d8">
    <animate attributeName="opacity" values="1;0" keyTimes="0;1" dur="0.48780487804878053s" begin="-0.1626016260162602s" repeatCount="indefinite"></animate>
  </rect>
</g><g transform="rotate(240 50 50)">
  <rect x="48.5" y="20" rx="1.5" ry="8" width="3" height="16" fill="#00b4d8">
    <animate attributeName="opacity" values="1;0" keyTimes="0;1" dur="0.48780487804878053s" begin="-0.13008130081300814s" repeatCount="indefinite"></animate>
  </rect>
</g><g transform="rotate(264 50 50)">
  <rect x="48.5" y="20" rx="1.5" ry="8" width="3" height="16" fill="#00b4d8">
    <animate attributeName="opacity" values="1;0" keyTimes="0;1" dur="0.48780487804878053s" begin="-0.09756097560975611s" repeatCount="indefinite"></animate>
  </rect>
</g><g transform="rotate(288 50 50)">
  <rect x="48.5" y="20" rx="1.5" ry="8" width="3" height="16" fill="#00b4d8">
    <animate attributeName="opacity" values="1;0" keyTimes="0;1" dur="0.48780487804878053s" begin="-0.06504065040650407s" repeatCount="indefinite"></animate>
  </rect>
</g><g transform="rotate(312 50 50)">
  <rect x="48.5" y="20" rx="1.5" ry="8" width="3" height="16" fill="#00b4d8">
    <animate attributeName="opacity" values="1;0" keyTimes="0;1" dur="0.48780487804878053s" begin="-0.032520325203252036s" repeatCount="indefinite"></animate>
  </rect>
</g><g transform="rotate(336 50 50)">
  <rect x="48.5" y="20" rx="1.5" ry="8" width="3" height="16" fill="#00b4d8">
    <animate attributeName="opacity" values="1;0" keyTimes="0;1" dur="0.48780487804878053s" begin="0s" repeatCount="indefinite"></animate>
  </rect>
</g>
<!-- [ldio] generated by https://loading.io/ --></svg>